<mxfile host="Electron" agent="Mozilla/5.0 (Macintosh; Intel Mac OS X 10_15_7) AppleWebKit/537.36 (KHTML, like Gecko) draw.io/26.0.16 Chrome/132.0.6834.196 Electron/34.2.0 Safari/537.36" version="26.0.16">
  <diagram name="Sales Data Mart " id="hLIjLHAYCb3o381HsihC">
    <mxGraphModel dx="1193" dy="2109" grid="0" gridSize="10" guides="1" tooltips="1" connect="1" arrows="1" fold="1" page="1" pageScale="1" pageWidth="1920" pageHeight="1200" math="0" shadow="0">
      <root>
        <mxCell id="3UP7FawPSVQ9M-GqKKiO-0" />
        <mxCell id="3UP7FawPSVQ9M-GqKKiO-1" parent="3UP7FawPSVQ9M-GqKKiO-0" />
        <mxCell id="3UP7FawPSVQ9M-GqKKiO-40" value="&lt;font style=&quot;&quot;&gt;&lt;b style=&quot;font-size: 38px;&quot;&gt;Sales Data Mart &lt;/b&gt;&lt;font style=&quot;font-size: 30px;&quot;&gt;(Star Schema)&lt;/font&gt;&lt;br style=&quot;font-size: 38px;&quot;&gt;&lt;/font&gt;" style="text;html=1;strokeColor=none;fillColor=none;align=left;verticalAlign=middle;whiteSpace=wrap;rounded=1;fontSize=38;fontFamily=Helvetica;" parent="3UP7FawPSVQ9M-GqKKiO-1" vertex="1">
          <mxGeometry x="40" y="-1170" width="610" height="54" as="geometry" />
        </mxCell>
        <mxCell id="R6O-aEDRoKmDsrgJR9yp-0" value="&lt;font style=&quot;font-size: 18px;&quot;&gt;gold.dim_customers&lt;/font&gt;" style="shape=table;startSize=40;container=1;collapsible=1;childLayout=tableLayout;fixedRows=1;rowLines=0;fontStyle=1;align=center;resizeLast=1;html=1;rounded=1;fillColor=#fff2cc;strokeColor=#d6b656;" parent="3UP7FawPSVQ9M-GqKKiO-1" vertex="1">
          <mxGeometry x="890" y="-440" width="250" height="275" as="geometry" />
        </mxCell>
        <mxCell id="R6O-aEDRoKmDsrgJR9yp-1" value="" style="shape=tableRow;horizontal=0;startSize=0;swimlaneHead=0;swimlaneBody=0;fillColor=none;collapsible=0;dropTarget=0;points=[[0,0.5],[1,0.5]];portConstraint=eastwest;top=0;left=0;right=0;bottom=1;rounded=1;fontStyle=1;fontSize=16;" parent="R6O-aEDRoKmDsrgJR9yp-0" vertex="1">
          <mxGeometry y="40" width="250" height="40" as="geometry" />
        </mxCell>
        <mxCell id="R6O-aEDRoKmDsrgJR9yp-2" value="PK" style="shape=partialRectangle;connectable=0;fillColor=none;top=0;left=0;bottom=0;right=0;fontStyle=1;overflow=hidden;whiteSpace=wrap;html=1;rounded=1;fontSize=16;" parent="R6O-aEDRoKmDsrgJR9yp-1" vertex="1">
          <mxGeometry width="30" height="40" as="geometry">
            <mxRectangle width="30" height="40" as="alternateBounds" />
          </mxGeometry>
        </mxCell>
        <mxCell id="R6O-aEDRoKmDsrgJR9yp-3" value="customer_id" style="shape=partialRectangle;connectable=0;fillColor=none;top=0;left=0;bottom=0;right=0;align=left;spacingLeft=6;fontStyle=5;overflow=hidden;whiteSpace=wrap;html=1;rounded=1;fontSize=16;" parent="R6O-aEDRoKmDsrgJR9yp-1" vertex="1">
          <mxGeometry x="30" width="220" height="40" as="geometry">
            <mxRectangle width="220" height="40" as="alternateBounds" />
          </mxGeometry>
        </mxCell>
        <mxCell id="R6O-aEDRoKmDsrgJR9yp-4" value="" style="shape=tableRow;horizontal=0;startSize=0;swimlaneHead=0;swimlaneBody=0;fillColor=none;collapsible=0;dropTarget=0;points=[[0,0.5],[1,0.5]];portConstraint=eastwest;top=0;left=0;right=0;bottom=0;rounded=1;fontStyle=1;fontSize=16;" parent="R6O-aEDRoKmDsrgJR9yp-0" vertex="1">
          <mxGeometry y="80" width="250" height="39" as="geometry" />
        </mxCell>
        <mxCell id="R6O-aEDRoKmDsrgJR9yp-5" value="" style="shape=partialRectangle;connectable=0;fillColor=none;top=0;left=0;bottom=0;right=0;editable=1;overflow=hidden;whiteSpace=wrap;html=1;rounded=1;fontStyle=1;fontSize=16;" parent="R6O-aEDRoKmDsrgJR9yp-4" vertex="1">
          <mxGeometry width="30" height="39" as="geometry">
            <mxRectangle width="30" height="39" as="alternateBounds" />
          </mxGeometry>
        </mxCell>
        <mxCell id="R6O-aEDRoKmDsrgJR9yp-6" value="full_name" style="shape=partialRectangle;connectable=0;fillColor=none;top=0;left=0;bottom=0;right=0;align=left;spacingLeft=6;overflow=hidden;whiteSpace=wrap;html=1;rounded=1;fontStyle=1;fontSize=16;" parent="R6O-aEDRoKmDsrgJR9yp-4" vertex="1">
          <mxGeometry x="30" width="220" height="39" as="geometry">
            <mxRectangle width="220" height="39" as="alternateBounds" />
          </mxGeometry>
        </mxCell>
        <mxCell id="R6O-aEDRoKmDsrgJR9yp-7" value="" style="shape=tableRow;horizontal=0;startSize=0;swimlaneHead=0;swimlaneBody=0;fillColor=none;collapsible=0;dropTarget=0;points=[[0,0.5],[1,0.5]];portConstraint=eastwest;top=0;left=0;right=0;bottom=0;rounded=1;fontStyle=1;fontSize=16;" parent="R6O-aEDRoKmDsrgJR9yp-0" vertex="1">
          <mxGeometry y="119" width="250" height="39" as="geometry" />
        </mxCell>
        <mxCell id="R6O-aEDRoKmDsrgJR9yp-8" value="" style="shape=partialRectangle;connectable=0;fillColor=none;top=0;left=0;bottom=0;right=0;editable=1;overflow=hidden;whiteSpace=wrap;html=1;rounded=1;fontStyle=1;fontSize=16;" parent="R6O-aEDRoKmDsrgJR9yp-7" vertex="1">
          <mxGeometry width="30" height="39" as="geometry">
            <mxRectangle width="30" height="39" as="alternateBounds" />
          </mxGeometry>
        </mxCell>
        <mxCell id="R6O-aEDRoKmDsrgJR9yp-9" value="email" style="shape=partialRectangle;connectable=0;fillColor=none;top=0;left=0;bottom=0;right=0;align=left;spacingLeft=6;overflow=hidden;whiteSpace=wrap;html=1;rounded=1;fontStyle=1;fontSize=16;" parent="R6O-aEDRoKmDsrgJR9yp-7" vertex="1">
          <mxGeometry x="30" width="220" height="39" as="geometry">
            <mxRectangle width="220" height="39" as="alternateBounds" />
          </mxGeometry>
        </mxCell>
        <mxCell id="R6O-aEDRoKmDsrgJR9yp-10" value="" style="shape=tableRow;horizontal=0;startSize=0;swimlaneHead=0;swimlaneBody=0;fillColor=none;collapsible=0;dropTarget=0;points=[[0,0.5],[1,0.5]];portConstraint=eastwest;top=0;left=0;right=0;bottom=0;rounded=1;fontStyle=1;fontSize=16;" parent="R6O-aEDRoKmDsrgJR9yp-0" vertex="1">
          <mxGeometry y="158" width="250" height="39" as="geometry" />
        </mxCell>
        <mxCell id="R6O-aEDRoKmDsrgJR9yp-11" value="" style="shape=partialRectangle;connectable=0;fillColor=none;top=0;left=0;bottom=0;right=0;editable=1;overflow=hidden;whiteSpace=wrap;html=1;rounded=1;fontStyle=1;fontSize=16;" parent="R6O-aEDRoKmDsrgJR9yp-10" vertex="1">
          <mxGeometry width="30" height="39" as="geometry">
            <mxRectangle width="30" height="39" as="alternateBounds" />
          </mxGeometry>
        </mxCell>
        <mxCell id="R6O-aEDRoKmDsrgJR9yp-12" value="city" style="shape=partialRectangle;connectable=0;fillColor=none;top=0;left=0;bottom=0;right=0;align=left;spacingLeft=6;overflow=hidden;whiteSpace=wrap;html=1;rounded=1;fontStyle=1;fontSize=16;" parent="R6O-aEDRoKmDsrgJR9yp-10" vertex="1">
          <mxGeometry x="30" width="220" height="39" as="geometry">
            <mxRectangle width="220" height="39" as="alternateBounds" />
          </mxGeometry>
        </mxCell>
        <mxCell id="R6O-aEDRoKmDsrgJR9yp-13" value="" style="shape=tableRow;horizontal=0;startSize=0;swimlaneHead=0;swimlaneBody=0;fillColor=none;collapsible=0;dropTarget=0;points=[[0,0.5],[1,0.5]];portConstraint=eastwest;top=0;left=0;right=0;bottom=0;rounded=1;fontStyle=1;fontSize=16;" parent="R6O-aEDRoKmDsrgJR9yp-0" vertex="1">
          <mxGeometry y="197" width="250" height="39" as="geometry" />
        </mxCell>
        <mxCell id="R6O-aEDRoKmDsrgJR9yp-14" value="" style="shape=partialRectangle;connectable=0;fillColor=none;top=0;left=0;bottom=0;right=0;editable=1;overflow=hidden;whiteSpace=wrap;html=1;rounded=1;fontStyle=1;fontSize=16;" parent="R6O-aEDRoKmDsrgJR9yp-13" vertex="1">
          <mxGeometry width="30" height="39" as="geometry">
            <mxRectangle width="30" height="39" as="alternateBounds" />
          </mxGeometry>
        </mxCell>
        <mxCell id="R6O-aEDRoKmDsrgJR9yp-15" value="country_name" style="shape=partialRectangle;connectable=0;fillColor=none;top=0;left=0;bottom=0;right=0;align=left;spacingLeft=6;overflow=hidden;whiteSpace=wrap;html=1;rounded=1;fontStyle=1;fontSize=16;" parent="R6O-aEDRoKmDsrgJR9yp-13" vertex="1">
          <mxGeometry x="30" width="220" height="39" as="geometry">
            <mxRectangle width="220" height="39" as="alternateBounds" />
          </mxGeometry>
        </mxCell>
        <mxCell id="R6O-aEDRoKmDsrgJR9yp-19" value="" style="shape=tableRow;horizontal=0;startSize=0;swimlaneHead=0;swimlaneBody=0;fillColor=none;collapsible=0;dropTarget=0;points=[[0,0.5],[1,0.5]];portConstraint=eastwest;top=0;left=0;right=0;bottom=0;rounded=1;fontStyle=1;fontSize=16;" parent="R6O-aEDRoKmDsrgJR9yp-0" vertex="1">
          <mxGeometry y="236" width="250" height="39" as="geometry" />
        </mxCell>
        <mxCell id="R6O-aEDRoKmDsrgJR9yp-20" value="" style="shape=partialRectangle;connectable=0;fillColor=none;top=0;left=0;bottom=0;right=0;editable=1;overflow=hidden;whiteSpace=wrap;html=1;rounded=1;fontStyle=1;fontSize=16;" parent="R6O-aEDRoKmDsrgJR9yp-19" vertex="1">
          <mxGeometry width="30" height="39" as="geometry">
            <mxRectangle width="30" height="39" as="alternateBounds" />
          </mxGeometry>
        </mxCell>
        <mxCell id="R6O-aEDRoKmDsrgJR9yp-21" value="address_status" style="shape=partialRectangle;connectable=0;fillColor=none;top=0;left=0;bottom=0;right=0;align=left;spacingLeft=6;overflow=hidden;whiteSpace=wrap;html=1;rounded=1;fontStyle=1;fontSize=16;" parent="R6O-aEDRoKmDsrgJR9yp-19" vertex="1">
          <mxGeometry x="30" width="220" height="39" as="geometry">
            <mxRectangle width="220" height="39" as="alternateBounds" />
          </mxGeometry>
        </mxCell>
        <mxCell id="R6O-aEDRoKmDsrgJR9yp-31" value="&lt;font style=&quot;font-size: 18px;&quot;&gt;gold.dim_orders&lt;/font&gt;" style="shape=table;startSize=40;container=1;collapsible=1;childLayout=tableLayout;fixedRows=1;rowLines=0;fontStyle=1;align=center;resizeLast=1;html=1;rounded=1;fillColor=#fff2cc;strokeColor=#d6b656;" parent="3UP7FawPSVQ9M-GqKKiO-1" vertex="1">
          <mxGeometry x="1230" y="-970" width="250" height="245" as="geometry" />
        </mxCell>
        <mxCell id="R6O-aEDRoKmDsrgJR9yp-32" value="" style="shape=tableRow;horizontal=0;startSize=0;swimlaneHead=0;swimlaneBody=0;fillColor=none;collapsible=0;dropTarget=0;points=[[0,0.5],[1,0.5]];portConstraint=eastwest;top=0;left=0;right=0;bottom=1;rounded=1;fontStyle=1;fontSize=16;" parent="R6O-aEDRoKmDsrgJR9yp-31" vertex="1">
          <mxGeometry y="40" width="250" height="39" as="geometry" />
        </mxCell>
        <mxCell id="R6O-aEDRoKmDsrgJR9yp-33" value="PK" style="shape=partialRectangle;connectable=0;fillColor=none;top=0;left=0;bottom=0;right=0;fontStyle=1;overflow=hidden;whiteSpace=wrap;html=1;rounded=1;fontSize=16;" parent="R6O-aEDRoKmDsrgJR9yp-32" vertex="1">
          <mxGeometry width="30" height="39" as="geometry">
            <mxRectangle width="30" height="39" as="alternateBounds" />
          </mxGeometry>
        </mxCell>
        <mxCell id="R6O-aEDRoKmDsrgJR9yp-34" value="&lt;span style=&quot;background-color: rgb(255, 244, 248);&quot;&gt;order_id&lt;/span&gt;" style="shape=partialRectangle;connectable=0;fillColor=none;top=0;left=0;bottom=0;right=0;align=left;spacingLeft=6;fontStyle=5;overflow=hidden;whiteSpace=wrap;html=1;rounded=1;fontSize=16;" parent="R6O-aEDRoKmDsrgJR9yp-32" vertex="1">
          <mxGeometry x="30" width="220" height="39" as="geometry">
            <mxRectangle width="220" height="39" as="alternateBounds" />
          </mxGeometry>
        </mxCell>
        <mxCell id="R6O-aEDRoKmDsrgJR9yp-35" value="" style="shape=tableRow;horizontal=0;startSize=0;swimlaneHead=0;swimlaneBody=0;fillColor=none;collapsible=0;dropTarget=0;points=[[0,0.5],[1,0.5]];portConstraint=eastwest;top=0;left=0;right=0;bottom=0;rounded=1;fontStyle=1;fontSize=16;" parent="R6O-aEDRoKmDsrgJR9yp-31" vertex="1">
          <mxGeometry y="79" width="250" height="39" as="geometry" />
        </mxCell>
        <mxCell id="R6O-aEDRoKmDsrgJR9yp-36" value="" style="shape=partialRectangle;connectable=0;fillColor=none;top=0;left=0;bottom=0;right=0;editable=1;overflow=hidden;whiteSpace=wrap;html=1;rounded=1;fontStyle=1;fontSize=16;" parent="R6O-aEDRoKmDsrgJR9yp-35" vertex="1">
          <mxGeometry width="30" height="39" as="geometry">
            <mxRectangle width="30" height="39" as="alternateBounds" />
          </mxGeometry>
        </mxCell>
        <mxCell id="R6O-aEDRoKmDsrgJR9yp-37" value="order_date" style="shape=partialRectangle;connectable=0;fillColor=none;top=0;left=0;bottom=0;right=0;align=left;spacingLeft=6;overflow=hidden;whiteSpace=wrap;html=1;rounded=1;fontStyle=1;fontSize=16;" parent="R6O-aEDRoKmDsrgJR9yp-35" vertex="1">
          <mxGeometry x="30" width="220" height="39" as="geometry">
            <mxRectangle width="220" height="39" as="alternateBounds" />
          </mxGeometry>
        </mxCell>
        <mxCell id="R6O-aEDRoKmDsrgJR9yp-38" value="" style="shape=tableRow;horizontal=0;startSize=0;swimlaneHead=0;swimlaneBody=0;fillColor=none;collapsible=0;dropTarget=0;points=[[0,0.5],[1,0.5]];portConstraint=eastwest;top=0;left=0;right=0;bottom=0;rounded=1;fontStyle=1;fontSize=16;" parent="R6O-aEDRoKmDsrgJR9yp-31" vertex="1">
          <mxGeometry y="118" width="250" height="39" as="geometry" />
        </mxCell>
        <mxCell id="R6O-aEDRoKmDsrgJR9yp-39" value="" style="shape=partialRectangle;connectable=0;fillColor=none;top=0;left=0;bottom=0;right=0;editable=1;overflow=hidden;whiteSpace=wrap;html=1;rounded=1;fontStyle=1;fontSize=16;" parent="R6O-aEDRoKmDsrgJR9yp-38" vertex="1">
          <mxGeometry width="30" height="39" as="geometry">
            <mxRectangle width="30" height="39" as="alternateBounds" />
          </mxGeometry>
        </mxCell>
        <mxCell id="R6O-aEDRoKmDsrgJR9yp-40" value="customer_id" style="shape=partialRectangle;connectable=0;fillColor=none;top=0;left=0;bottom=0;right=0;align=left;spacingLeft=6;overflow=hidden;whiteSpace=wrap;html=1;rounded=1;fontStyle=1;fontSize=16;" parent="R6O-aEDRoKmDsrgJR9yp-38" vertex="1">
          <mxGeometry x="30" width="220" height="39" as="geometry">
            <mxRectangle width="220" height="39" as="alternateBounds" />
          </mxGeometry>
        </mxCell>
        <mxCell id="R6O-aEDRoKmDsrgJR9yp-41" value="" style="shape=tableRow;horizontal=0;startSize=0;swimlaneHead=0;swimlaneBody=0;fillColor=none;collapsible=0;dropTarget=0;points=[[0,0.5],[1,0.5]];portConstraint=eastwest;top=0;left=0;right=0;bottom=0;rounded=1;fontStyle=1;fontSize=16;" parent="R6O-aEDRoKmDsrgJR9yp-31" vertex="1">
          <mxGeometry y="157" width="250" height="39" as="geometry" />
        </mxCell>
        <mxCell id="R6O-aEDRoKmDsrgJR9yp-42" value="" style="shape=partialRectangle;connectable=0;fillColor=none;top=0;left=0;bottom=0;right=0;editable=1;overflow=hidden;whiteSpace=wrap;html=1;rounded=1;fontStyle=1;fontSize=16;" parent="R6O-aEDRoKmDsrgJR9yp-41" vertex="1">
          <mxGeometry width="30" height="39" as="geometry">
            <mxRectangle width="30" height="39" as="alternateBounds" />
          </mxGeometry>
        </mxCell>
        <mxCell id="R6O-aEDRoKmDsrgJR9yp-43" value="status_value" style="shape=partialRectangle;connectable=0;fillColor=none;top=0;left=0;bottom=0;right=0;align=left;spacingLeft=6;overflow=hidden;whiteSpace=wrap;html=1;rounded=1;fontStyle=1;fontSize=16;" parent="R6O-aEDRoKmDsrgJR9yp-41" vertex="1">
          <mxGeometry x="30" width="220" height="39" as="geometry">
            <mxRectangle width="220" height="39" as="alternateBounds" />
          </mxGeometry>
        </mxCell>
        <mxCell id="R6O-aEDRoKmDsrgJR9yp-62" value="" style="shape=tableRow;horizontal=0;startSize=0;swimlaneHead=0;swimlaneBody=0;fillColor=none;collapsible=0;dropTarget=0;points=[[0,0.5],[1,0.5]];portConstraint=eastwest;top=0;left=0;right=0;bottom=0;rounded=1;fontStyle=1;fontSize=16;" parent="R6O-aEDRoKmDsrgJR9yp-31" vertex="1">
          <mxGeometry y="196" width="250" height="39" as="geometry" />
        </mxCell>
        <mxCell id="R6O-aEDRoKmDsrgJR9yp-63" value="" style="shape=partialRectangle;connectable=0;fillColor=none;top=0;left=0;bottom=0;right=0;editable=1;overflow=hidden;whiteSpace=wrap;html=1;rounded=1;fontStyle=1;fontSize=16;" parent="R6O-aEDRoKmDsrgJR9yp-62" vertex="1">
          <mxGeometry width="30" height="39" as="geometry">
            <mxRectangle width="30" height="39" as="alternateBounds" />
          </mxGeometry>
        </mxCell>
        <mxCell id="R6O-aEDRoKmDsrgJR9yp-64" value="shipping_method" style="shape=partialRectangle;connectable=0;fillColor=none;top=0;left=0;bottom=0;right=0;align=left;spacingLeft=6;overflow=hidden;whiteSpace=wrap;html=1;rounded=1;fontStyle=1;fontSize=16;" parent="R6O-aEDRoKmDsrgJR9yp-62" vertex="1">
          <mxGeometry x="30" width="220" height="39" as="geometry">
            <mxRectangle width="220" height="39" as="alternateBounds" />
          </mxGeometry>
        </mxCell>
        <mxCell id="RSjQB6CufSZ6GuDouGY3-0" value="&lt;font style=&quot;font-size: 18px;&quot;&gt;gold.dim_books&lt;/font&gt;" style="shape=table;startSize=40;container=1;collapsible=1;childLayout=tableLayout;fixedRows=1;rowLines=0;fontStyle=1;align=center;resizeLast=1;html=1;rounded=1;fillColor=#dae8fc;strokeColor=#6c8ebf;arcSize=16;" vertex="1" parent="3UP7FawPSVQ9M-GqKKiO-1">
          <mxGeometry x="470" y="-680" width="250" height="353" as="geometry" />
        </mxCell>
        <mxCell id="RSjQB6CufSZ6GuDouGY3-1" value="" style="shape=tableRow;horizontal=0;startSize=0;swimlaneHead=0;swimlaneBody=0;fillColor=none;collapsible=0;dropTarget=0;points=[[0,0.5],[1,0.5]];portConstraint=eastwest;top=0;left=0;right=0;bottom=1;rounded=1;fontStyle=1;fontSize=16;" vertex="1" parent="RSjQB6CufSZ6GuDouGY3-0">
          <mxGeometry y="40" width="250" height="40" as="geometry" />
        </mxCell>
        <mxCell id="RSjQB6CufSZ6GuDouGY3-2" value="PK" style="shape=partialRectangle;connectable=0;fillColor=none;top=0;left=0;bottom=0;right=0;fontStyle=1;overflow=hidden;whiteSpace=wrap;html=1;rounded=1;fontSize=16;" vertex="1" parent="RSjQB6CufSZ6GuDouGY3-1">
          <mxGeometry width="30" height="40" as="geometry">
            <mxRectangle width="30" height="40" as="alternateBounds" />
          </mxGeometry>
        </mxCell>
        <mxCell id="RSjQB6CufSZ6GuDouGY3-3" value="book_id" style="shape=partialRectangle;connectable=0;fillColor=none;top=0;left=0;bottom=0;right=0;align=left;spacingLeft=6;fontStyle=5;overflow=hidden;whiteSpace=wrap;html=1;rounded=1;fontSize=16;" vertex="1" parent="RSjQB6CufSZ6GuDouGY3-1">
          <mxGeometry x="30" width="220" height="40" as="geometry">
            <mxRectangle width="220" height="40" as="alternateBounds" />
          </mxGeometry>
        </mxCell>
        <mxCell id="RSjQB6CufSZ6GuDouGY3-4" value="" style="shape=tableRow;horizontal=0;startSize=0;swimlaneHead=0;swimlaneBody=0;fillColor=none;collapsible=0;dropTarget=0;points=[[0,0.5],[1,0.5]];portConstraint=eastwest;top=0;left=0;right=0;bottom=0;rounded=1;fontStyle=1;fontSize=16;" vertex="1" parent="RSjQB6CufSZ6GuDouGY3-0">
          <mxGeometry y="80" width="250" height="39" as="geometry" />
        </mxCell>
        <mxCell id="RSjQB6CufSZ6GuDouGY3-5" value="" style="shape=partialRectangle;connectable=0;fillColor=none;top=0;left=0;bottom=0;right=0;editable=1;overflow=hidden;whiteSpace=wrap;html=1;rounded=1;fontStyle=1;fontSize=16;" vertex="1" parent="RSjQB6CufSZ6GuDouGY3-4">
          <mxGeometry width="30" height="39" as="geometry">
            <mxRectangle width="30" height="39" as="alternateBounds" />
          </mxGeometry>
        </mxCell>
        <mxCell id="RSjQB6CufSZ6GuDouGY3-6" value="title" style="shape=partialRectangle;connectable=0;fillColor=none;top=0;left=0;bottom=0;right=0;align=left;spacingLeft=6;overflow=hidden;whiteSpace=wrap;html=1;rounded=1;fontStyle=1;fontSize=16;" vertex="1" parent="RSjQB6CufSZ6GuDouGY3-4">
          <mxGeometry x="30" width="220" height="39" as="geometry">
            <mxRectangle width="220" height="39" as="alternateBounds" />
          </mxGeometry>
        </mxCell>
        <mxCell id="RSjQB6CufSZ6GuDouGY3-7" value="" style="shape=tableRow;horizontal=0;startSize=0;swimlaneHead=0;swimlaneBody=0;fillColor=none;collapsible=0;dropTarget=0;points=[[0,0.5],[1,0.5]];portConstraint=eastwest;top=0;left=0;right=0;bottom=0;rounded=1;fontStyle=1;fontSize=16;" vertex="1" parent="RSjQB6CufSZ6GuDouGY3-0">
          <mxGeometry y="119" width="250" height="39" as="geometry" />
        </mxCell>
        <mxCell id="RSjQB6CufSZ6GuDouGY3-8" value="" style="shape=partialRectangle;connectable=0;fillColor=none;top=0;left=0;bottom=0;right=0;editable=1;overflow=hidden;whiteSpace=wrap;html=1;rounded=1;fontStyle=1;fontSize=16;" vertex="1" parent="RSjQB6CufSZ6GuDouGY3-7">
          <mxGeometry width="30" height="39" as="geometry">
            <mxRectangle width="30" height="39" as="alternateBounds" />
          </mxGeometry>
        </mxCell>
        <mxCell id="RSjQB6CufSZ6GuDouGY3-9" value="isbn13" style="shape=partialRectangle;connectable=0;fillColor=none;top=0;left=0;bottom=0;right=0;align=left;spacingLeft=6;overflow=hidden;whiteSpace=wrap;html=1;rounded=1;fontStyle=1;fontSize=16;" vertex="1" parent="RSjQB6CufSZ6GuDouGY3-7">
          <mxGeometry x="30" width="220" height="39" as="geometry">
            <mxRectangle width="220" height="39" as="alternateBounds" />
          </mxGeometry>
        </mxCell>
        <mxCell id="RSjQB6CufSZ6GuDouGY3-10" value="" style="shape=tableRow;horizontal=0;startSize=0;swimlaneHead=0;swimlaneBody=0;fillColor=none;collapsible=0;dropTarget=0;points=[[0,0.5],[1,0.5]];portConstraint=eastwest;top=0;left=0;right=0;bottom=0;rounded=1;fontStyle=1;fontSize=16;" vertex="1" parent="RSjQB6CufSZ6GuDouGY3-0">
          <mxGeometry y="158" width="250" height="39" as="geometry" />
        </mxCell>
        <mxCell id="RSjQB6CufSZ6GuDouGY3-11" value="" style="shape=partialRectangle;connectable=0;fillColor=none;top=0;left=0;bottom=0;right=0;editable=1;overflow=hidden;whiteSpace=wrap;html=1;rounded=1;fontStyle=1;fontSize=16;" vertex="1" parent="RSjQB6CufSZ6GuDouGY3-10">
          <mxGeometry width="30" height="39" as="geometry">
            <mxRectangle width="30" height="39" as="alternateBounds" />
          </mxGeometry>
        </mxCell>
        <mxCell id="RSjQB6CufSZ6GuDouGY3-12" value="author_name" style="shape=partialRectangle;connectable=0;fillColor=none;top=0;left=0;bottom=0;right=0;align=left;spacingLeft=6;overflow=hidden;whiteSpace=wrap;html=1;rounded=1;fontStyle=1;fontSize=16;" vertex="1" parent="RSjQB6CufSZ6GuDouGY3-10">
          <mxGeometry x="30" width="220" height="39" as="geometry">
            <mxRectangle width="220" height="39" as="alternateBounds" />
          </mxGeometry>
        </mxCell>
        <mxCell id="RSjQB6CufSZ6GuDouGY3-13" value="" style="shape=tableRow;horizontal=0;startSize=0;swimlaneHead=0;swimlaneBody=0;fillColor=none;collapsible=0;dropTarget=0;points=[[0,0.5],[1,0.5]];portConstraint=eastwest;top=0;left=0;right=0;bottom=0;rounded=1;fontStyle=1;fontSize=16;" vertex="1" parent="RSjQB6CufSZ6GuDouGY3-0">
          <mxGeometry y="197" width="250" height="39" as="geometry" />
        </mxCell>
        <mxCell id="RSjQB6CufSZ6GuDouGY3-14" value="" style="shape=partialRectangle;connectable=0;fillColor=none;top=0;left=0;bottom=0;right=0;editable=1;overflow=hidden;whiteSpace=wrap;html=1;rounded=1;fontStyle=1;fontSize=16;" vertex="1" parent="RSjQB6CufSZ6GuDouGY3-13">
          <mxGeometry width="30" height="39" as="geometry">
            <mxRectangle width="30" height="39" as="alternateBounds" />
          </mxGeometry>
        </mxCell>
        <mxCell id="RSjQB6CufSZ6GuDouGY3-15" value="language_name" style="shape=partialRectangle;connectable=0;fillColor=none;top=0;left=0;bottom=0;right=0;align=left;spacingLeft=6;overflow=hidden;whiteSpace=wrap;html=1;rounded=1;fontStyle=1;fontSize=16;" vertex="1" parent="RSjQB6CufSZ6GuDouGY3-13">
          <mxGeometry x="30" width="220" height="39" as="geometry">
            <mxRectangle width="220" height="39" as="alternateBounds" />
          </mxGeometry>
        </mxCell>
        <mxCell id="RSjQB6CufSZ6GuDouGY3-16" value="" style="shape=tableRow;horizontal=0;startSize=0;swimlaneHead=0;swimlaneBody=0;fillColor=none;collapsible=0;dropTarget=0;points=[[0,0.5],[1,0.5]];portConstraint=eastwest;top=0;left=0;right=0;bottom=0;rounded=1;fontStyle=1;fontSize=16;" vertex="1" parent="RSjQB6CufSZ6GuDouGY3-0">
          <mxGeometry y="236" width="250" height="39" as="geometry" />
        </mxCell>
        <mxCell id="RSjQB6CufSZ6GuDouGY3-17" value="" style="shape=partialRectangle;connectable=0;fillColor=none;top=0;left=0;bottom=0;right=0;editable=1;overflow=hidden;whiteSpace=wrap;html=1;rounded=1;fontStyle=1;fontSize=16;" vertex="1" parent="RSjQB6CufSZ6GuDouGY3-16">
          <mxGeometry width="30" height="39" as="geometry">
            <mxRectangle width="30" height="39" as="alternateBounds" />
          </mxGeometry>
        </mxCell>
        <mxCell id="RSjQB6CufSZ6GuDouGY3-18" value="num_pages" style="shape=partialRectangle;connectable=0;fillColor=none;top=0;left=0;bottom=0;right=0;align=left;spacingLeft=6;overflow=hidden;whiteSpace=wrap;html=1;rounded=1;fontStyle=1;fontSize=16;" vertex="1" parent="RSjQB6CufSZ6GuDouGY3-16">
          <mxGeometry x="30" width="220" height="39" as="geometry">
            <mxRectangle width="220" height="39" as="alternateBounds" />
          </mxGeometry>
        </mxCell>
        <mxCell id="RSjQB6CufSZ6GuDouGY3-19" value="" style="shape=tableRow;horizontal=0;startSize=0;swimlaneHead=0;swimlaneBody=0;fillColor=none;collapsible=0;dropTarget=0;points=[[0,0.5],[1,0.5]];portConstraint=eastwest;top=0;left=0;right=0;bottom=0;rounded=1;fontStyle=1;fontSize=16;" vertex="1" parent="RSjQB6CufSZ6GuDouGY3-0">
          <mxGeometry y="275" width="250" height="39" as="geometry" />
        </mxCell>
        <mxCell id="RSjQB6CufSZ6GuDouGY3-20" value="" style="shape=partialRectangle;connectable=0;fillColor=none;top=0;left=0;bottom=0;right=0;editable=1;overflow=hidden;whiteSpace=wrap;html=1;rounded=1;fontStyle=1;fontSize=16;" vertex="1" parent="RSjQB6CufSZ6GuDouGY3-19">
          <mxGeometry width="30" height="39" as="geometry">
            <mxRectangle width="30" height="39" as="alternateBounds" />
          </mxGeometry>
        </mxCell>
        <mxCell id="RSjQB6CufSZ6GuDouGY3-21" value="publication_date" style="shape=partialRectangle;connectable=0;fillColor=none;top=0;left=0;bottom=0;right=0;align=left;spacingLeft=6;overflow=hidden;whiteSpace=wrap;html=1;rounded=1;fontStyle=1;fontSize=16;" vertex="1" parent="RSjQB6CufSZ6GuDouGY3-19">
          <mxGeometry x="30" width="220" height="39" as="geometry">
            <mxRectangle width="220" height="39" as="alternateBounds" />
          </mxGeometry>
        </mxCell>
        <mxCell id="RSjQB6CufSZ6GuDouGY3-22" value="" style="shape=tableRow;horizontal=0;startSize=0;swimlaneHead=0;swimlaneBody=0;fillColor=none;collapsible=0;dropTarget=0;points=[[0,0.5],[1,0.5]];portConstraint=eastwest;top=0;left=0;right=0;bottom=0;rounded=1;fontStyle=1;fontSize=16;" vertex="1" parent="RSjQB6CufSZ6GuDouGY3-0">
          <mxGeometry y="314" width="250" height="39" as="geometry" />
        </mxCell>
        <mxCell id="RSjQB6CufSZ6GuDouGY3-23" value="" style="shape=partialRectangle;connectable=0;fillColor=none;top=0;left=0;bottom=0;right=0;editable=1;overflow=hidden;whiteSpace=wrap;html=1;rounded=1;fontStyle=1;fontSize=16;" vertex="1" parent="RSjQB6CufSZ6GuDouGY3-22">
          <mxGeometry width="30" height="39" as="geometry">
            <mxRectangle width="30" height="39" as="alternateBounds" />
          </mxGeometry>
        </mxCell>
        <mxCell id="RSjQB6CufSZ6GuDouGY3-24" value="publisher_name" style="shape=partialRectangle;connectable=0;fillColor=none;top=0;left=0;bottom=0;right=0;align=left;spacingLeft=6;overflow=hidden;whiteSpace=wrap;html=1;rounded=1;fontStyle=1;fontSize=16;" vertex="1" parent="RSjQB6CufSZ6GuDouGY3-22">
          <mxGeometry x="30" width="220" height="39" as="geometry">
            <mxRectangle width="220" height="39" as="alternateBounds" />
          </mxGeometry>
        </mxCell>
        <mxCell id="RSjQB6CufSZ6GuDouGY3-31" value="&lt;font style=&quot;font-size: 18px;&quot;&gt;gold.fact_sales&lt;/font&gt;" style="shape=table;startSize=40;container=1;collapsible=1;childLayout=tableLayout;fixedRows=1;rowLines=0;fontStyle=1;align=center;resizeLast=1;html=1;rounded=1;fillColor=#dae8fc;strokeColor=#6c8ebf;arcSize=16;" vertex="1" parent="3UP7FawPSVQ9M-GqKKiO-1">
          <mxGeometry x="800" y="-990" width="260" height="385" as="geometry" />
        </mxCell>
        <mxCell id="RSjQB6CufSZ6GuDouGY3-35" value="" style="shape=tableRow;horizontal=0;startSize=0;swimlaneHead=0;swimlaneBody=0;fillColor=none;collapsible=0;dropTarget=0;points=[[0,0.5],[1,0.5]];portConstraint=eastwest;top=0;left=0;right=0;bottom=0;rounded=1;fontStyle=1;fontSize=16;" vertex="1" parent="RSjQB6CufSZ6GuDouGY3-31">
          <mxGeometry y="40" width="260" height="39" as="geometry" />
        </mxCell>
        <mxCell id="RSjQB6CufSZ6GuDouGY3-36" value="FK" style="shape=partialRectangle;connectable=0;fillColor=none;top=0;left=0;bottom=0;right=0;editable=1;overflow=hidden;whiteSpace=wrap;html=1;rounded=1;fontStyle=1;fontSize=16;" vertex="1" parent="RSjQB6CufSZ6GuDouGY3-35">
          <mxGeometry width="30" height="39" as="geometry">
            <mxRectangle width="30" height="39" as="alternateBounds" />
          </mxGeometry>
        </mxCell>
        <mxCell id="RSjQB6CufSZ6GuDouGY3-37" value="order_id" style="shape=partialRectangle;connectable=0;fillColor=none;top=0;left=0;bottom=0;right=0;align=left;spacingLeft=6;overflow=hidden;whiteSpace=wrap;html=1;rounded=1;fontStyle=1;fontSize=16;" vertex="1" parent="RSjQB6CufSZ6GuDouGY3-35">
          <mxGeometry x="30" width="230" height="39" as="geometry">
            <mxRectangle width="230" height="39" as="alternateBounds" />
          </mxGeometry>
        </mxCell>
        <mxCell id="RSjQB6CufSZ6GuDouGY3-109" value="" style="shape=tableRow;horizontal=0;startSize=0;swimlaneHead=0;swimlaneBody=0;fillColor=none;collapsible=0;dropTarget=0;points=[[0,0.5],[1,0.5]];portConstraint=eastwest;top=0;left=0;right=0;bottom=0;rounded=1;fontStyle=1;fontSize=16;" vertex="1" parent="RSjQB6CufSZ6GuDouGY3-31">
          <mxGeometry y="79" width="260" height="39" as="geometry" />
        </mxCell>
        <mxCell id="RSjQB6CufSZ6GuDouGY3-110" value="FK" style="shape=partialRectangle;connectable=0;fillColor=none;top=0;left=0;bottom=0;right=0;editable=1;overflow=hidden;whiteSpace=wrap;html=1;rounded=1;fontStyle=1;fontSize=16;" vertex="1" parent="RSjQB6CufSZ6GuDouGY3-109">
          <mxGeometry width="30" height="39" as="geometry">
            <mxRectangle width="30" height="39" as="alternateBounds" />
          </mxGeometry>
        </mxCell>
        <mxCell id="RSjQB6CufSZ6GuDouGY3-111" value="order_date" style="shape=partialRectangle;connectable=0;fillColor=none;top=0;left=0;bottom=0;right=0;align=left;spacingLeft=6;overflow=hidden;whiteSpace=wrap;html=1;rounded=1;fontStyle=1;fontSize=16;" vertex="1" parent="RSjQB6CufSZ6GuDouGY3-109">
          <mxGeometry x="30" width="230" height="39" as="geometry">
            <mxRectangle width="230" height="39" as="alternateBounds" />
          </mxGeometry>
        </mxCell>
        <mxCell id="RSjQB6CufSZ6GuDouGY3-38" value="" style="shape=tableRow;horizontal=0;startSize=0;swimlaneHead=0;swimlaneBody=0;fillColor=none;collapsible=0;dropTarget=0;points=[[0,0.5],[1,0.5]];portConstraint=eastwest;top=0;left=0;right=0;bottom=0;rounded=1;fontStyle=1;fontSize=16;" vertex="1" parent="RSjQB6CufSZ6GuDouGY3-31">
          <mxGeometry y="118" width="260" height="39" as="geometry" />
        </mxCell>
        <mxCell id="RSjQB6CufSZ6GuDouGY3-39" value="FK" style="shape=partialRectangle;connectable=0;fillColor=none;top=0;left=0;bottom=0;right=0;editable=1;overflow=hidden;whiteSpace=wrap;html=1;rounded=1;fontStyle=1;fontSize=16;" vertex="1" parent="RSjQB6CufSZ6GuDouGY3-38">
          <mxGeometry width="30" height="39" as="geometry">
            <mxRectangle width="30" height="39" as="alternateBounds" />
          </mxGeometry>
        </mxCell>
        <mxCell id="RSjQB6CufSZ6GuDouGY3-40" value="customer_id" style="shape=partialRectangle;connectable=0;fillColor=none;top=0;left=0;bottom=0;right=0;align=left;spacingLeft=6;overflow=hidden;whiteSpace=wrap;html=1;rounded=1;fontStyle=1;fontSize=16;" vertex="1" parent="RSjQB6CufSZ6GuDouGY3-38">
          <mxGeometry x="30" width="230" height="39" as="geometry">
            <mxRectangle width="230" height="39" as="alternateBounds" />
          </mxGeometry>
        </mxCell>
        <mxCell id="RSjQB6CufSZ6GuDouGY3-41" value="" style="shape=tableRow;horizontal=0;startSize=0;swimlaneHead=0;swimlaneBody=0;fillColor=none;collapsible=0;dropTarget=0;points=[[0,0.5],[1,0.5]];portConstraint=eastwest;top=0;left=0;right=0;bottom=0;rounded=1;fontStyle=1;fontSize=16;" vertex="1" parent="RSjQB6CufSZ6GuDouGY3-31">
          <mxGeometry y="157" width="260" height="39" as="geometry" />
        </mxCell>
        <mxCell id="RSjQB6CufSZ6GuDouGY3-42" value="FK" style="shape=partialRectangle;connectable=0;fillColor=none;top=0;left=0;bottom=0;right=0;editable=1;overflow=hidden;whiteSpace=wrap;html=1;rounded=1;fontStyle=1;fontSize=16;" vertex="1" parent="RSjQB6CufSZ6GuDouGY3-41">
          <mxGeometry width="30" height="39" as="geometry">
            <mxRectangle width="30" height="39" as="alternateBounds" />
          </mxGeometry>
        </mxCell>
        <mxCell id="RSjQB6CufSZ6GuDouGY3-43" value="book_id" style="shape=partialRectangle;connectable=0;fillColor=none;top=0;left=0;bottom=0;right=0;align=left;spacingLeft=6;overflow=hidden;whiteSpace=wrap;html=1;rounded=1;fontStyle=1;fontSize=16;" vertex="1" parent="RSjQB6CufSZ6GuDouGY3-41">
          <mxGeometry x="30" width="230" height="39" as="geometry">
            <mxRectangle width="230" height="39" as="alternateBounds" />
          </mxGeometry>
        </mxCell>
        <mxCell id="RSjQB6CufSZ6GuDouGY3-44" value="" style="shape=tableRow;horizontal=0;startSize=0;swimlaneHead=0;swimlaneBody=0;fillColor=none;collapsible=0;dropTarget=0;points=[[0,0.5],[1,0.5]];portConstraint=eastwest;top=0;left=0;right=0;bottom=0;rounded=1;fontStyle=1;fontSize=16;" vertex="1" parent="RSjQB6CufSZ6GuDouGY3-31">
          <mxGeometry y="196" width="260" height="39" as="geometry" />
        </mxCell>
        <mxCell id="RSjQB6CufSZ6GuDouGY3-45" value="" style="shape=partialRectangle;connectable=0;fillColor=none;top=0;left=0;bottom=0;right=0;editable=1;overflow=hidden;whiteSpace=wrap;html=1;rounded=1;fontStyle=1;fontSize=16;" vertex="1" parent="RSjQB6CufSZ6GuDouGY3-44">
          <mxGeometry width="30" height="39" as="geometry">
            <mxRectangle width="30" height="39" as="alternateBounds" />
          </mxGeometry>
        </mxCell>
        <mxCell id="RSjQB6CufSZ6GuDouGY3-46" value="price" style="shape=partialRectangle;connectable=0;fillColor=none;top=0;left=0;bottom=0;right=0;align=left;spacingLeft=6;overflow=hidden;whiteSpace=wrap;html=1;rounded=1;fontStyle=1;fontSize=16;" vertex="1" parent="RSjQB6CufSZ6GuDouGY3-44">
          <mxGeometry x="30" width="230" height="39" as="geometry">
            <mxRectangle width="230" height="39" as="alternateBounds" />
          </mxGeometry>
        </mxCell>
        <mxCell id="RSjQB6CufSZ6GuDouGY3-47" value="" style="shape=tableRow;horizontal=0;startSize=0;swimlaneHead=0;swimlaneBody=0;fillColor=none;collapsible=0;dropTarget=0;points=[[0,0.5],[1,0.5]];portConstraint=eastwest;top=0;left=0;right=0;bottom=0;rounded=1;fontStyle=1;fontSize=16;" vertex="1" parent="RSjQB6CufSZ6GuDouGY3-31">
          <mxGeometry y="235" width="260" height="39" as="geometry" />
        </mxCell>
        <mxCell id="RSjQB6CufSZ6GuDouGY3-48" value="" style="shape=partialRectangle;connectable=0;fillColor=none;top=0;left=0;bottom=0;right=0;editable=1;overflow=hidden;whiteSpace=wrap;html=1;rounded=1;fontStyle=1;fontSize=16;" vertex="1" parent="RSjQB6CufSZ6GuDouGY3-47">
          <mxGeometry width="30" height="39" as="geometry">
            <mxRectangle width="30" height="39" as="alternateBounds" />
          </mxGeometry>
        </mxCell>
        <mxCell id="RSjQB6CufSZ6GuDouGY3-49" value="status_id" style="shape=partialRectangle;connectable=0;fillColor=none;top=0;left=0;bottom=0;right=0;align=left;spacingLeft=6;overflow=hidden;whiteSpace=wrap;html=1;rounded=1;fontStyle=1;fontSize=16;" vertex="1" parent="RSjQB6CufSZ6GuDouGY3-47">
          <mxGeometry x="30" width="230" height="39" as="geometry">
            <mxRectangle width="230" height="39" as="alternateBounds" />
          </mxGeometry>
        </mxCell>
        <mxCell id="RSjQB6CufSZ6GuDouGY3-50" value="" style="shape=tableRow;horizontal=0;startSize=0;swimlaneHead=0;swimlaneBody=0;fillColor=none;collapsible=0;dropTarget=0;points=[[0,0.5],[1,0.5]];portConstraint=eastwest;top=0;left=0;right=0;bottom=0;rounded=1;fontStyle=1;fontSize=16;" vertex="1" parent="RSjQB6CufSZ6GuDouGY3-31">
          <mxGeometry y="274" width="260" height="39" as="geometry" />
        </mxCell>
        <mxCell id="RSjQB6CufSZ6GuDouGY3-51" value="" style="shape=partialRectangle;connectable=0;fillColor=none;top=0;left=0;bottom=0;right=0;editable=1;overflow=hidden;whiteSpace=wrap;html=1;rounded=1;fontStyle=1;fontSize=16;" vertex="1" parent="RSjQB6CufSZ6GuDouGY3-50">
          <mxGeometry width="30" height="39" as="geometry">
            <mxRectangle width="30" height="39" as="alternateBounds" />
          </mxGeometry>
        </mxCell>
        <mxCell id="RSjQB6CufSZ6GuDouGY3-52" value="status_value" style="shape=partialRectangle;connectable=0;fillColor=none;top=0;left=0;bottom=0;right=0;align=left;spacingLeft=6;overflow=hidden;whiteSpace=wrap;html=1;rounded=1;fontStyle=1;fontSize=16;" vertex="1" parent="RSjQB6CufSZ6GuDouGY3-50">
          <mxGeometry x="30" width="230" height="39" as="geometry">
            <mxRectangle width="230" height="39" as="alternateBounds" />
          </mxGeometry>
        </mxCell>
        <mxCell id="RSjQB6CufSZ6GuDouGY3-76" value="" style="shape=tableRow;horizontal=0;startSize=0;swimlaneHead=0;swimlaneBody=0;fillColor=none;collapsible=0;dropTarget=0;points=[[0,0.5],[1,0.5]];portConstraint=eastwest;top=0;left=0;right=0;bottom=0;rounded=1;fontStyle=1;fontSize=16;" vertex="1" parent="RSjQB6CufSZ6GuDouGY3-31">
          <mxGeometry y="313" width="260" height="36" as="geometry" />
        </mxCell>
        <mxCell id="RSjQB6CufSZ6GuDouGY3-77" value="&lt;div&gt;FK&lt;/div&gt;" style="shape=partialRectangle;connectable=0;fillColor=none;top=0;left=0;bottom=0;right=0;editable=1;overflow=hidden;whiteSpace=wrap;html=1;rounded=1;fontStyle=1;fontSize=16;" vertex="1" parent="RSjQB6CufSZ6GuDouGY3-76">
          <mxGeometry width="30" height="36" as="geometry">
            <mxRectangle width="30" height="36" as="alternateBounds" />
          </mxGeometry>
        </mxCell>
        <mxCell id="RSjQB6CufSZ6GuDouGY3-78" value="shipping_method" style="shape=partialRectangle;connectable=0;fillColor=none;top=0;left=0;bottom=0;right=0;align=left;spacingLeft=6;overflow=hidden;whiteSpace=wrap;html=1;rounded=1;fontStyle=1;fontSize=16;" vertex="1" parent="RSjQB6CufSZ6GuDouGY3-76">
          <mxGeometry x="30" width="230" height="36" as="geometry">
            <mxRectangle width="230" height="36" as="alternateBounds" />
          </mxGeometry>
        </mxCell>
        <mxCell id="RSjQB6CufSZ6GuDouGY3-53" value="" style="shape=tableRow;horizontal=0;startSize=0;swimlaneHead=0;swimlaneBody=0;fillColor=none;collapsible=0;dropTarget=0;points=[[0,0.5],[1,0.5]];portConstraint=eastwest;top=0;left=0;right=0;bottom=0;rounded=1;fontStyle=1;fontSize=16;" vertex="1" parent="RSjQB6CufSZ6GuDouGY3-31">
          <mxGeometry y="349" width="260" height="36" as="geometry" />
        </mxCell>
        <mxCell id="RSjQB6CufSZ6GuDouGY3-54" value="&lt;br&gt;&lt;br&gt;&lt;br&gt;&lt;br&gt;&lt;div&gt;&lt;br/&gt;&lt;/div&gt;" style="shape=partialRectangle;connectable=0;fillColor=none;top=0;left=0;bottom=0;right=0;editable=1;overflow=hidden;whiteSpace=wrap;html=1;rounded=1;fontStyle=1;fontSize=16;" vertex="1" parent="RSjQB6CufSZ6GuDouGY3-53">
          <mxGeometry width="30" height="36" as="geometry">
            <mxRectangle width="30" height="36" as="alternateBounds" />
          </mxGeometry>
        </mxCell>
        <mxCell id="RSjQB6CufSZ6GuDouGY3-55" value="shipping_cost" style="shape=partialRectangle;connectable=0;fillColor=none;top=0;left=0;bottom=0;right=0;align=left;spacingLeft=6;overflow=hidden;whiteSpace=wrap;html=1;rounded=1;fontStyle=1;fontSize=16;" vertex="1" parent="RSjQB6CufSZ6GuDouGY3-53">
          <mxGeometry x="30" width="230" height="36" as="geometry">
            <mxRectangle width="230" height="36" as="alternateBounds" />
          </mxGeometry>
        </mxCell>
        <mxCell id="RSjQB6CufSZ6GuDouGY3-105" value="" style="edgeStyle=entityRelationEdgeStyle;fontSize=12;html=1;endArrow=ERoneToMany;rounded=0;exitX=1;exitY=0.5;exitDx=0;exitDy=0;entryX=0;entryY=0.5;entryDx=0;entryDy=0;" edge="1" parent="3UP7FawPSVQ9M-GqKKiO-1" source="RSjQB6CufSZ6GuDouGY3-1" target="RSjQB6CufSZ6GuDouGY3-41">
          <mxGeometry width="100" height="100" relative="1" as="geometry">
            <mxPoint x="670" y="-690" as="sourcePoint" />
            <mxPoint x="770" y="-790" as="targetPoint" />
          </mxGeometry>
        </mxCell>
        <mxCell id="RSjQB6CufSZ6GuDouGY3-106" value="" style="edgeStyle=entityRelationEdgeStyle;fontSize=12;html=1;endArrow=ERoneToMany;rounded=0;exitX=0.003;exitY=0.772;exitDx=0;exitDy=0;entryX=1;entryY=0.5;entryDx=0;entryDy=0;exitPerimeter=0;" edge="1" parent="3UP7FawPSVQ9M-GqKKiO-1" source="R6O-aEDRoKmDsrgJR9yp-35" target="RSjQB6CufSZ6GuDouGY3-109">
          <mxGeometry width="100" height="100" relative="1" as="geometry">
            <mxPoint x="900" y="-430" as="sourcePoint" />
            <mxPoint x="1060" y="-940" as="targetPoint" />
          </mxGeometry>
        </mxCell>
        <mxCell id="RSjQB6CufSZ6GuDouGY3-107" value="" style="edgeStyle=entityRelationEdgeStyle;fontSize=12;html=1;endArrow=ERoneToMany;rounded=0;entryX=1;entryY=0.5;entryDx=0;entryDy=0;" edge="1" parent="3UP7FawPSVQ9M-GqKKiO-1" target="RSjQB6CufSZ6GuDouGY3-38">
          <mxGeometry width="100" height="100" relative="1" as="geometry">
            <mxPoint x="1140" y="-380" as="sourcePoint" />
            <mxPoint x="1240" y="-480" as="targetPoint" />
          </mxGeometry>
        </mxCell>
        <mxCell id="RSjQB6CufSZ6GuDouGY3-112" value="" style="edgeStyle=entityRelationEdgeStyle;fontSize=12;html=1;endArrow=ERone;endFill=1;rounded=0;exitX=0;exitY=0.5;exitDx=0;exitDy=0;entryX=1;entryY=0.5;entryDx=0;entryDy=0;" edge="1" parent="3UP7FawPSVQ9M-GqKKiO-1" source="R6O-aEDRoKmDsrgJR9yp-32" target="RSjQB6CufSZ6GuDouGY3-35">
          <mxGeometry width="100" height="100" relative="1" as="geometry">
            <mxPoint x="1080" y="-700" as="sourcePoint" />
            <mxPoint x="1180" y="-800" as="targetPoint" />
          </mxGeometry>
        </mxCell>
        <mxCell id="RSjQB6CufSZ6GuDouGY3-114" value="" style="edgeStyle=entityRelationEdgeStyle;fontSize=12;html=1;endArrow=ERoneToMany;rounded=0;exitX=0;exitY=0.5;exitDx=0;exitDy=0;entryX=1;entryY=0.5;entryDx=0;entryDy=0;" edge="1" parent="3UP7FawPSVQ9M-GqKKiO-1" source="R6O-aEDRoKmDsrgJR9yp-62" target="RSjQB6CufSZ6GuDouGY3-76">
          <mxGeometry width="100" height="100" relative="1" as="geometry">
            <mxPoint x="1240" y="-560" as="sourcePoint" />
            <mxPoint x="1340" y="-660" as="targetPoint" />
          </mxGeometry>
        </mxCell>
      </root>
    </mxGraphModel>
  </diagram>
</mxfile>
